<?xml version="1.0" encoding="iso-8859-1"?>
<!-- Generator: Adobe Illustrator 19.0.0, SVG Export Plug-In . SVG Version: 6.00 Build 0)  -->
<svg version="1.1" id="Layer_1" xmlns="http://www.w3.org/2000/svg" xmlns:xlink="http://www.w3.org/1999/xlink" x="0px" y="0px"
	 viewBox="0 0 512 512" style="enable-background:new 0 0 512 512;" xml:space="preserve">
<g>
	<g>
		<path d="M272.696,55.752v-5.664c0-9.206,7.49-16.696,16.696-16.696h33.392c9.221,0,16.696-7.475,16.696-16.696
			S332.004,0,322.783,0h-33.392c-27.618,0-50.088,22.469-50.088,50.088v5.664C146.74,58.702,72.345,134.91,72.345,228.177
			c0,9.221,7.475,16.696,16.696,16.696h16.696v83.48c0.002,67.253,45.358,126.715,110.299,144.601
			c3.947,1.087,7.366,3.556,9.63,6.952l16.443,24.667c6.603,9.906,21.185,9.9,27.783,0l16.443-24.665
			c2.265-3.398,5.684-5.867,9.629-6.952c64.943-17.887,110.299-77.349,110.299-144.602v-83.48h16.696
			c9.221,0,16.696-7.475,16.696-16.696C439.655,134.91,365.26,58.702,272.696,55.752z M372.873,328.353
			c0,52.275-35.271,98.499-85.774,112.408c-11.688,3.219-21.825,10.543-28.546,20.623l-2.552,3.828l-2.551-3.828
			c-6.718-10.079-16.857-17.403-28.546-20.623c-50.503-13.909-85.775-60.133-85.775-112.408v-83.48h233.743V328.353z
			 M106.734,211.481c8.271-68.878,67.066-122.437,138.137-122.437h22.261c71.071,0,129.866,53.558,138.136,122.437
			C393.252,211.481,115.395,211.481,106.734,211.481z"/>
	</g>
</g>
<g>
	<g>
		<path d="M242.645,376.383c-21.627-5.954-36.731-25.704-36.731-48.029v-33.392c0-9.221-7.475-16.696-16.696-16.696
			s-16.696,7.475-16.696,16.696v33.392c0,37.304,25.19,70.292,61.26,80.222c8.872,2.445,18.077-2.762,20.528-11.665
			C256.758,388.021,251.535,378.83,242.645,376.383z"/>
	</g>
</g>
<g>
</g>
<g>
</g>
<g>
</g>
<g>
</g>
<g>
</g>
<g>
</g>
<g>
</g>
<g>
</g>
<g>
</g>
<g>
</g>
<g>
</g>
<g>
</g>
<g>
</g>
<g>
</g>
<g>
</g>
</svg>
