<?xml version="1.0" encoding="iso-8859-1"?>
<!-- Generator: Adobe Illustrator 19.0.0, SVG Export Plug-In . SVG Version: 6.00 Build 0)  -->
<svg version="1.1" id="Capa_1" xmlns="http://www.w3.org/2000/svg" xmlns:xlink="http://www.w3.org/1999/xlink" x="0px" y="0px"
	 viewBox="0 0 485.077 485.077" style="enable-background:new 0 0 485.077 485.077;" xml:space="preserve">
<g>
	<path d="M456.045,30.832c-0.301-0.33-0.6-0.636-0.896-0.925c-0.003-0.003-0.006-0.006-0.009-0.009
		c-0.007-0.007-0.014-0.013-0.02-0.02c-0.147-0.151-0.301-0.301-0.459-0.453c-19.141-19.224-49.535-29.386-87.986-29.386
		c-42.644,0-94.183,12.598-145.123,35.473C167.146,59.943,116.101,94.546,73.935,135.578c-47.097,45.83-72.646,99.774-73.888,156
		c-1.136,51.464,18.396,100.52,54.995,138.13l0.289,0.289c36.469,35.489,84.033,55.037,133.929,55.041c0.008,0,0.012,0,0.019,0
		c57.725,0,113.116-25.566,160.183-73.933c57.26-58.841,102.16-135.738,123.19-210.975
		C493.81,124.432,487.734,62.878,456.045,30.832z M76.438,408.599c-3.159-4.429-4.506-19.845,11.295-50.445
		c12.176-23.58,38.02-62.914,91.992-116.399c52.565-52.09,110.579-101.327,163.355-138.64
		c50.344-35.593,77.527-47.156,88.625-49.783c-2.628,11.096-14.191,38.287-49.781,88.626
		c-37.313,52.776-86.55,110.79-138.64,163.356c-53.485,53.972-92.82,79.816-116.399,91.992
		C96.28,413.109,80.863,411.76,76.438,408.599z M30.04,292.24c1.063-48.195,23.478-94.933,64.816-135.162
		c76.865-74.799,188.642-127.04,271.819-127.04c12.3,0,23.403,1.173,33.154,3.464c-24.706,11.538-53.545,30.467-77.289,47.404
		c-53.219,37.963-111.438,87.519-163.933,139.539c-44.922,44.516-78.647,87.375-97.53,123.943
		c-5.276,10.217-9.083,19.353-11.73,27.542C36.137,347.572,29.42,320.321,30.04,292.24z M443.759,192.055
		c-19.722,70.556-61.929,142.771-115.798,198.128c-41.29,42.431-89.242,64.857-138.683,64.855c-0.003,0-0.013,0-0.016,0
		c-26.784-0.003-52.79-6.724-76.117-19.355c8.178-2.646,17.305-6.455,27.504-11.722c36.568-18.883,79.427-52.609,123.943-97.531
		c52.021-52.494,101.576-110.713,139.539-163.933c16.902-23.694,35.789-52.446,47.333-77.115
		C457.849,112.82,455.417,150.345,443.759,192.055z"/>
</g>
<g>
</g>
<g>
</g>
<g>
</g>
<g>
</g>
<g>
</g>
<g>
</g>
<g>
</g>
<g>
</g>
<g>
</g>
<g>
</g>
<g>
</g>
<g>
</g>
<g>
</g>
<g>
</g>
<g>
</g>
</svg>
