<?xml version="1.0" encoding="iso-8859-1"?>
<!-- Generator: Adobe Illustrator 18.0.0, SVG Export Plug-In . SVG Version: 6.00 Build 0)  -->
<!DOCTYPE svg PUBLIC "-//W3C//DTD SVG 1.1//EN" "http://www.w3.org/Graphics/SVG/1.1/DTD/svg11.dtd">
<svg version="1.1" id="Capa_1" xmlns="http://www.w3.org/2000/svg" xmlns:xlink="http://www.w3.org/1999/xlink" x="0px" y="0px"
	 viewBox="0 0 56.683 56.683" style="enable-background:new 0 0 56.683 56.683;" xml:space="preserve">
<g>
	<path d="M52.842,32.183c0-7.401-3.367-14.387-9.08-19.024c2.572-1.357,4.689-3.559,5.935-6.384l2.604-5.908l-6.41-0.77
		c-5.837-0.706-11.34,2.439-13.708,7.813L32.14,8.007c-1.267-0.199-2.54-0.323-3.799-0.323c-13.509,0-24.5,10.991-24.5,24.5
		s10.991,24.5,24.5,24.5c2.802,0,5.493-0.479,8.003-1.349c2.207-0.502,4.083-1.493,5.647-2.816
		C48.531,48.114,52.842,40.643,52.842,32.183z M50.842,32.183c0,4.664-1.427,9.001-3.866,12.597
		c0.645-1.978,1.004-4.048,1.068-6.058c0.224-7.028-3.02-15.066-10.77-17.18c-0.062-0.016-0.122-0.007-0.184-0.012
		c-0.537-0.2-2.595-0.873-5.911-0.984l0.858-6.434l3.952,0.474c0.496,0.06,0.996,0.087,1.496,0.09c0.04,0,0.08,0.007,0.12,0.007
		c1.397,0,2.758-0.225,4.046-0.638C47.415,18.285,50.842,25.025,50.842,32.183z M29.9,15.003l-0.458,3.434l-0.458-3.434H29.9z
		 M45.653,2.084l3.729,0.448l-1.516,3.437c-1.209,2.743-3.386,4.793-6.003,5.868l-0.407,0.15c-1.222,0.45-2.52,0.678-3.818,0.689
		c-0.058,0-0.116,0.001-0.174,0c-0.414-0.003-0.828-0.024-1.238-0.073l-1.592-0.191l8.744-5.565
		c0.466-0.296,0.603-0.915,0.307-1.381C43.389,5,42.771,4.863,42.304,5.159l-9.345,5.947l1.053-2.389
		C36.024,4.155,40.7,1.489,45.653,2.084z M5.842,32.183c0-12.407,10.093-22.5,22.5-22.5c0.983,0,1.979,0.067,2.971,0.199
		l-1.375,3.121H26.7l0.96,7.203c-2.057-0.488-3.774-1.71-4.874-4.853c-0.182-0.521-0.75-0.795-1.274-0.613
		c-0.521,0.183-0.796,0.753-0.613,1.274c2.053,5.866,6.199,6.44,9.923,6.519c3.577,0.075,5.59,0.879,5.636,0.898
		c0.126,0.053,0.256,0.078,0.385,0.078c0.003,0,0.006-0.001,0.009-0.001c6.621,1.873,9.391,8.943,9.194,15.153
		c-0.143,4.494-1.846,9.325-5.274,12.268c-1.553,1.033-3.242,1.876-5.033,2.501c-0.027,0.006-0.051,0.015-0.078,0.021
		c-0.025,0.005-0.044,0.022-0.069,0.029c-2.276,0.777-4.712,1.205-7.248,1.205C15.935,54.683,5.842,44.59,5.842,32.183z"/>
	<path d="M11.706,26.991c0.156-0.53-0.148-1.085-0.678-1.241c-0.527-0.157-1.085,0.147-1.241,0.678
		c-1.144,3.892-1.024,8.169,0.335,12.044c0.144,0.412,0.531,0.669,0.943,0.669c0.11,0,0.222-0.019,0.331-0.057
		c0.521-0.183,0.795-0.753,0.612-1.274C10.787,34.327,10.679,30.485,11.706,26.991z"/>
	<path d="M14.217,18.74c-1.041,1.091-1.948,2.308-2.697,3.618c-0.274,0.479-0.108,1.09,0.371,1.364
		c0.157,0.09,0.327,0.132,0.496,0.132c0.347,0,0.684-0.181,0.869-0.503c0.669-1.169,1.48-2.256,2.409-3.231
		c0.381-0.4,0.366-1.033-0.034-1.414C15.232,18.326,14.598,18.34,14.217,18.74z"/>
</g>
<g>
</g>
<g>
</g>
<g>
</g>
<g>
</g>
<g>
</g>
<g>
</g>
<g>
</g>
<g>
</g>
<g>
</g>
<g>
</g>
<g>
</g>
<g>
</g>
<g>
</g>
<g>
</g>
<g>
</g>
</svg>
