<?xml version="1.0" standalone="no"?>
<!DOCTYPE svg PUBLIC "-//W3C//DTD SVG 20010904//EN"
 "http://www.w3.org/TR/2001/REC-SVG-20010904/DTD/svg10.dtd">
<svg version="1.0" xmlns="http://www.w3.org/2000/svg"
 width="278.000000pt" height="182.000000pt" viewBox="0 0 278.000000 182.000000"
 preserveAspectRatio="xMidYMid meet">

<g transform="translate(0.000000,182.000000) scale(0.100000,-0.100000)"
fill="#000000" stroke="none">
<path d="M1320 1671 c-28 -9 -107 -56 -127 -77 -7 -7 -18 -14 -25 -17 -17 -6
23 -50 77 -86 45 -30 131 -70 102 -47 -16 12 -16 14 8 14 20 0 24 -4 20 -19
-5 -15 -1 -19 20 -19 14 0 28 6 31 14 3 8 12 12 20 9 8 -3 14 1 14 11 0 19 -3
18 38 6 28 -8 32 -7 22 5 -9 11 -6 13 14 11 14 -2 23 1 19 6 -3 6 3 7 16 3 12
-4 21 -2 21 4 0 6 -8 11 -17 12 -15 0 -15 2 2 9 16 6 17 9 5 13 -18 7 -169 18
-220 17 -24 0 -31 3 -24 10 10 10 82 19 182 22 23 1 42 3 42 6 0 6 -38 40 -66
58 -23 16 -112 44 -134 43 -8 0 -26 -4 -40 -8z m-65 -119 c-3 -3 -11 0 -18 7
-9 10 -8 11 6 5 10 -3 15 -9 12 -12z"/>
<path d="M1068 1565 c-6 -13 -14 -22 -19 -20 -4 3 -10 -13 -14 -35 -4 -22 -15
-50 -26 -64 l-19 -24 23 11 c19 9 87 126 87 151 0 16 -22 3 -32 -19z"/>
<path d="M1163 1353 c-13 -3 -20 -9 -17 -18 3 -7 -4 -23 -16 -35 -21 -21 -22
-22 -3 -40 11 -10 25 -32 33 -49 7 -17 16 -31 21 -31 5 0 9 -16 9 -35 0 -22 6
-38 15 -41 11 -5 12 -11 5 -24 -15 -29 -12 -77 6 -84 10 -4 13 -13 9 -26 -5
-17 -2 -20 20 -20 45 0 169 41 154 51 -8 5 -9 9 -4 9 13 0 17 90 5 90 -6 0
-10 7 -10 15 0 8 5 15 10 15 6 0 10 11 10 24 0 17 -7 26 -25 30 -26 7 -34 31
-13 38 9 3 8 9 -5 22 -9 10 -17 23 -17 30 0 7 -9 25 -20 38 -10 14 -16 28 -13
32 3 3 -3 6 -15 6 -11 0 -22 -5 -24 -11 -3 -8 -14 -7 -35 5 -32 16 -39 17 -80
9z m114 -89 c-3 -3 -12 -4 -19 -1 -8 3 -5 6 6 6 11 1 17 -2 13 -5z"/>
<path d="M1500 1060 l0 -57 83 -6 c130 -9 228 -62 241 -131 5 -25 14 -37 37
-47 43 -17 59 -61 59 -162 0 -99 -20 -182 -62 -257 -38 -68 -37 -67 -49 -50
-8 12 -9 10 -4 -6 4 -17 -5 -31 -44 -66 -59 -51 -111 -83 -111 -69 0 6 6 11
13 11 17 0 100 77 103 96 3 20 14 32 14 15 0 -7 4 -10 10 -6 5 3 7 12 4 19 -3
7 2 20 10 29 21 21 38 67 32 84 -3 8 -2 12 3 9 9 -6 17 8 31 56 14 46 -1 40
-64 -26 -68 -72 -157 -134 -228 -161 -27 -10 -48 -22 -48 -26 0 -5 -5 -9 -11
-9 -5 0 -7 4 -4 10 3 5 0 7 -9 4 -8 -3 -13 -11 -10 -18 3 -7 -7 -18 -21 -24
-14 -6 -25 -16 -25 -21 0 -5 -9 -7 -20 -4 -11 3 -20 1 -20 -5 0 -6 -12 -12
-27 -14 -27 -3 -27 -3 12 -22 43 -21 115 -26 154 -12 18 6 22 5 16 -4 -6 -10
0 -11 26 -6 39 9 208 8 257 0 17 -4 48 -3 68 1 34 6 35 7 18 21 -18 15 -18 15
-1 10 55 -18 67 -18 67 -2 0 8 10 25 23 37 l22 22 -72 -7 c-47 -4 -73 -2 -73
4 0 5 7 10 16 10 8 0 12 4 9 10 -3 6 1 10 10 10 9 0 41 11 72 26 31 14 62 23
69 20 8 -3 11 2 9 13 -3 14 5 17 43 17 46 0 109 23 85 31 -7 3 -10 10 -7 17 7
19 -26 25 -136 27 -52 1 -84 4 -70 6 26 5 40 19 40 41 0 9 -7 11 -21 7 -20 -7
-21 -5 -16 24 6 27 4 31 -16 32 -17 1 -18 2 -4 6 9 2 17 9 17 14 0 5 8 9 17 9
9 0 14 3 11 6 -4 3 2 14 13 25 27 27 26 87 -3 98 l-22 8 24 6 c19 5 21 9 12
20 -7 8 -9 16 -6 19 3 3 -6 8 -20 12 -15 4 -26 14 -28 28 -2 13 -17 32 -35 43
-18 11 -32 25 -33 31 0 17 -52 74 -68 74 -7 0 -15 7 -18 15 -4 8 -24 18 -45
21 -21 4 -39 12 -39 18 0 6 -28 22 -62 35 -35 13 -73 30 -86 38 -12 7 -42 17
-67 22 l-45 8 0 -57z m497 -816 c-3 -3 -12 -4 -19 -1 -8 3 -5 6 6 6 11 1 17
-2 13 -5z"/>
<path d="M1205 940 c3 -5 14 -10 23 -10 15 0 15 2 2 10 -20 13 -33 13 -25 0z"/>
<path d="M1790 840 c0 -5 5 -10 11 -10 5 0 7 5 4 10 -3 6 -8 10 -11 10 -2 0
-4 -4 -4 -10z"/>
<path d="M1680 784 c0 -9 7 -14 17 -12 25 5 28 28 4 28 -12 0 -21 -6 -21 -16z"/>
<path d="M1605 777 c11 -9 23 -13 27 -11 5 3 8 1 8 -4 0 -6 -7 -12 -15 -16 -8
-3 -15 -1 -15 4 0 6 -9 10 -21 10 -11 0 -18 -4 -15 -8 2 -4 -12 -7 -32 -5 -23
2 -30 0 -20 -4 12 -6 14 -13 9 -22 -5 -8 -7 -21 -4 -30 4 -13 3 -13 -5 -2 -7
9 -12 10 -16 2 -4 -6 -13 -11 -19 -11 -7 0 -6 4 3 10 12 7 12 12 2 22 -6 6
-12 8 -12 3 0 -6 -4 -5 -8 1 -5 8 -11 7 -22 -4 -13 -14 -12 -15 3 -9 20 8 21
-1 3 -25 -15 -21 -30 -24 -21 -5 4 6 -2 2 -13 -10 -26 -29 -67 -45 -98 -37
-15 4 -24 2 -24 -6 0 -6 -5 -8 -12 -4 -7 4 -8 3 -4 -4 4 -7 -3 -14 -19 -18
-13 -3 -22 -10 -19 -15 3 -5 13 -5 24 1 12 6 21 7 25 0 3 -5 -6 -12 -21 -16
-19 -5 -31 -2 -39 9 -10 14 -13 14 -29 -4 -16 -19 -16 -22 -2 -38 9 -10 16
-23 16 -29 0 -20 120 -14 184 8 88 30 148 66 206 126 29 30 49 54 45 54 -5 0
-1 6 9 13 14 11 16 19 9 47 -8 32 -13 35 -49 38 -36 3 -38 2 -19 -11z m-101
-142 c-4 -8 -7 -15 -9 -15 -2 0 -5 7 -9 15 -3 9 0 15 9 15 9 0 12 -6 9 -15z
m-34 -35 c-18 -12 -30 -13 -30 -2 0 4 10 9 22 9 18 2 20 0 8 -7z m-148 -32
c-7 -7 -12 -8 -12 -2 0 14 12 26 19 19 2 -3 -1 -11 -7 -17z m98 6 c0 -8 -19
-13 -24 -6 -3 5 1 9 9 9 8 0 15 -2 15 -3z"/>
<path d="M1261 721 c-27 -34 -51 -80 -51 -99 0 -11 44 41 59 70 8 15 23 37 33
48 15 16 16 20 4 20 -8 0 -28 -17 -45 -39z"/>
<path d="M1170 520 c0 -4 9 -10 20 -13 11 -3 20 -2 20 3 0 4 -9 10 -20 13 -11
3 -20 2 -20 -3z"/>
<path d="M960 470 c12 -8 12 -10 1 -10 -11 0 -11 -3 -1 -15 10 -13 15 -13 21
-3 9 14 -7 38 -25 38 -6 0 -4 -5 4 -10z"/>
<path d="M1275 210 c-3 -5 -1 -10 4 -10 6 0 11 5 11 10 0 6 -2 10 -4 10 -3 0
-8 -4 -11 -10z"/>
</g>
</svg>
